<?xml version="1.0" encoding="utf-8"?>
<!-- Generator: Adobe Illustrator 26.5.0, SVG Export Plug-In . SVG Version: 6.00 Build 0)  -->
<svg version="1.1" id="Capa_1" xmlns="http://www.w3.org/2000/svg" xmlns:xlink="http://www.w3.org/1999/xlink" x="0px" y="0px"
	 viewBox="0 0 323.2 95.4" style="enable-background:new 0 0 323.2 95.4;" xml:space="preserve">
<style type="text/css">
	.st0{fill:#FC3979;}
	.st1{fill:#FDDE24;}
	.st2{fill:#039CFC;}
	.st3{fill:#7AEEBF;}
	.st4{fill:#FFFFFF;}
	.st5{fill:#FFDE1F;}
	.st6{fill:#0F1011;}
</style>
<g>
	<path class="st0" d="M67.9,88.3c-1.7-0.4-3-1.6-4.2-2.8c-5.3-5.3-10.6-10.6-16-15.9c2.5-2.6,5.1-5.1,7.6-7.7
		c0.7,0.7,1.4,1.4,2.1,2.1c0.7,0.7,0.7,0.7,1.5,0c4.3-4.3,8.6-8.6,12.9-12.9c1.6,1.6,3.1,3.1,4.7,4.7c1,1,2.1,2.1,3.2,3.1
		c0.2,0.2,0.4,0.4,0.6,0.6c1.9,1.9,3.7,3.8,5.6,5.6c2.6,2.3,2.6,6.3,0,8.8c-3.9,3.8-7.7,7.7-11.5,11.5c-1.3,1.3-2.5,2.5-4.3,2.9
		C69.3,88.3,68.6,88.3,67.9,88.3z"/>
	<path class="st1" d="M79.7,58.8c-1.1-1-2.1-2-3.2-3.1c-1.6-1.5-3.1-3.1-4.7-4.7c0.3-0.3,0.6-0.6,0.9-1c2.6-2.9,3.5-6.2,2.5-10
		c-1-3.7-3.6-6-7.3-7.1c-1.6-0.5-3.3-0.3-4.9-0.1c0.2-0.2,0.4-0.4,0.6-0.6c1.7-1.7,3.4-3.4,5.1-5.1c2.1-2,4.1-4.1,6.2-6.2
		c2.7-2.7,6.2-2.7,8.8,0c3.9,3.9,7.8,7.8,11.7,11.7c1.2,1.2,2.3,2.4,2.7,4.1c0,0.7,0,1.5,0,2.2c-0.4,1.7-1.6,3-2.8,4.2
		c-2.8,2.7-5.6,5.5-8.3,8.3C84.5,53.9,82.1,56.4,79.7,58.8z"/>
	<path class="st2" d="M55.3,61.9c-2.5,2.6-5.1,5.1-7.6,7.7c-2.1,2-4.2,4-6.1,6.1c-2.6,2.8-6.6,2.6-9,0c-4.1-4.3-8.3-8.4-12.5-12.5
		c-2.5-2.5-2.5-6,0-8.5c5.4-5.4,10.7-10.7,16.1-16.1c0.2-0.2,0.4-0.5,0.6-0.7c0.3-0.3,0.5,0,0.7,0.2c1.1,1.1,2.2,2.2,3.4,3.3
		c0,0.1,0,0.2,0,0.2c-0.4,3.5,0.7,6.5,3.2,9c3.4,3.4,6.8,6.8,10.3,10.3C54.6,61.1,55,61.5,55.3,61.9z"/>
	<path class="st3" d="M40.8,41.3c-1.1-1.1-2.2-2.2-3.4-3.3c-0.2-0.2-0.3-0.5-0.7-0.2c-2.3-2.3-4.7-4.5-6.9-6.9
		c-1.9-2.1-1.8-5.6,0.3-7.7c4.4-4.5,8.8-8.9,13.3-13.3c2.3-2.3,5.9-2.1,8.3,0.3C57.1,15.6,62.6,21,68,26.5c0.2,0.2,0.5,0.4,0.7,0.6
		c-1.7,1.7-3.4,3.4-5.1,5.1c-0.2,0.2-0.4,0.4-0.6,0.6l0,0l-0.1,0.1c-1.5,0.4-2.9,1-4,2.1c-0.5,0.5-0.8,0.4-1.4,0
		c-2.6-2.2-5.6-2.9-8.9-2.1C44.3,34.1,41.7,36.9,40.8,41.3z"/>
	<path class="st4" d="M40.8,41.3c0.9-4.4,3.4-7.2,7.8-8.3c3.3-0.8,6.3-0.1,8.9,2.1c0.5,0.4,0.8,0.5,1.4,0c1.2-1.1,2.6-1.7,4-2.1
		c0.1,0,0.2,0,0.1-0.1l0,0c1.7-0.2,3.3-0.3,4.9,0.1c3.7,1.1,6.2,3.4,7.3,7.1c1.1,3.8,0.2,7.1-2.5,10c-0.3,0.3-0.6,0.6-0.9,1
		c-4.3,4.3-8.6,8.6-12.9,12.9c-0.7,0.7-0.7,0.7-1.5,0c-0.7-0.7-1.4-1.4-2.1-2.1c-0.4-0.4-0.7-0.8-1.1-1.1
		c-3.4-3.4-6.8-6.9-10.3-10.3c-2.5-2.5-3.6-5.5-3.2-9C40.8,41.5,40.8,41.4,40.8,41.3z M58.3,57.6c0.2,0,0.6,0,1-0.1
		c3.4-0.3,6.6-3.2,7.2-6.4c0.1-0.5,0.1-1-0.6-1.2c-0.6-0.1-0.9,0.3-1,0.8c-1,4-5.2,6.3-9.1,4.9c-2.4-0.8-4-2.5-4.6-5
		c-0.2-0.8-0.9-1.1-1.4-0.6c-0.3,0.3-0.2,0.7-0.1,1.1C50.6,55,54.1,57.6,58.3,57.6z"/>
	<path class="st5" d="M63,32.9C63,33,62.9,33,63,32.9C63,33,63,32.9,63,32.9z"/>
	<path class="st6" d="M58.3,57.6c-4.2,0-7.7-2.6-8.6-6.4c-0.1-0.4-0.2-0.8,0.1-1.1c0.5-0.5,1.2-0.2,1.4,0.6c0.6,2.5,2.2,4.1,4.6,5
		c3.9,1.4,8.1-0.9,9.1-4.9c0.1-0.5,0.4-0.9,1-0.8c0.6,0.1,0.7,0.6,0.6,1.2c-0.6,3.2-3.8,6.1-7.2,6.4C58.9,57.6,58.5,57.6,58.3,57.6z
		"/>
</g>
<g>
	<path class="st2" d="M104,40.8h6.5l3.1,10.3l3.3-10.3h6.3l-7,16.2h-5.5L104,40.8z"/>
	<path class="st2" d="M125.1,34.7h6.2v4.2h-6.2C125.1,38.9,125.1,34.7,125.1,34.7z M125.1,40.8h6.2V57h-6.2
		C125.1,57,125.1,40.8,125.1,40.8z"/>
	<path class="st2" d="M152.3,34.7V57h-5.8v-2.4c-0.8,1-1.6,1.7-2.2,2.1c-0.9,0.5-1.9,0.7-3,0.7c-2.2,0-3.9-0.8-5.1-2.5
		c-1.2-1.7-1.7-3.7-1.7-6.1c0-2.7,0.6-4.7,1.9-6.2c1.3-1.4,2.9-2.1,4.9-2.1c1,0,1.8,0.2,2.6,0.5s1.5,0.8,2.1,1.5v-7.7L152.3,34.7
		L152.3,34.7z M146.1,48.9c0-1.3-0.3-2.2-0.8-2.8s-1.2-0.9-2-0.9c-0.7,0-1.3,0.3-1.8,0.9c-0.5,0.6-0.7,1.6-0.7,3
		c0,1.3,0.3,2.3,0.8,2.9c0.5,0.6,1.1,0.9,1.9,0.9c0.8,0,1.5-0.3,2-0.9C145.9,51.3,146.1,50.3,146.1,48.9z"/>
	<path class="st2" d="M161.8,46.1l-5.9-0.6c0.2-1,0.5-1.9,1-2.4c0.4-0.6,1-1.1,1.8-1.5c0.6-0.3,1.4-0.6,2.3-0.7
		c1-0.2,2.1-0.3,3.2-0.3c1.9,0,3.4,0.1,4.5,0.3s2.1,0.6,2.8,1.3c0.5,0.5,0.9,1.1,1.2,1.9c0.3,0.8,0.5,1.6,0.5,2.4v7.2
		c0,0.8,0,1.4,0.1,1.8c0.1,0.4,0.3,1,0.6,1.7h-5.8c-0.2-0.4-0.4-0.7-0.5-1c-0.1-0.2-0.1-0.6-0.2-1c-0.8,0.8-1.6,1.3-2.4,1.7
		c-1.1,0.4-2.4,0.7-3.8,0.7c-1.9,0-3.4-0.4-4.4-1.3c-1-0.9-1.5-2-1.5-3.3c0-1.2,0.4-2.2,1.1-3c0.7-0.8,2.1-1.4,4-1.8
		c2.3-0.5,3.8-0.8,4.5-1s1.4-0.4,2.2-0.7c0-0.8-0.2-1.3-0.5-1.6s-0.9-0.5-1.7-0.5c-1,0-1.8,0.2-2.3,0.5
		C162.3,44.9,162,45.4,161.8,46.1z M167.2,49.3c-0.9,0.3-1.7,0.6-2.7,0.8c-1.3,0.3-2.1,0.7-2.4,1c-0.3,0.3-0.5,0.7-0.5,1.1
		c0,0.5,0.2,0.9,0.5,1.2s0.8,0.5,1.5,0.5s1.3-0.2,1.9-0.5c0.6-0.3,1-0.7,1.3-1.2c0.2-0.5,0.4-1.1,0.4-1.9V49.3z"/>
	<path class="st2" d="M185.6,40.8h6.5l3.3,10.8l3.1-10.8h6.1l-6.4,17.3c-0.7,2-1.5,3.3-2.2,4c-1.1,1-2.7,1.5-4.9,1.5
		c-0.9,0-2.3-0.1-4.1-0.4l-0.5-4.3c0.9,0.3,1.9,0.4,3,0.4c0.7,0,1.3-0.2,1.8-0.5s0.8-0.9,1.2-1.8L185.6,40.8z"/>
	<path class="st2" d="M215.8,52.5l6.2-0.6c0.3,0.7,0.6,1.3,1.1,1.6s1.1,0.5,1.8,0.5c0.8,0,1.5-0.2,1.9-0.5s0.5-0.6,0.5-1
		s-0.2-0.8-0.7-1c-0.3-0.2-1.2-0.4-2.7-0.6c-2.2-0.4-3.7-0.7-4.5-1s-1.5-0.9-2.1-1.6c-0.6-0.8-0.9-1.6-0.9-2.6c0-1.1,0.3-2,0.9-2.8
		c0.6-0.8,1.5-1.3,2.6-1.7s2.5-0.6,4.4-0.6s3.4,0.1,4.3,0.4c0.9,0.3,1.7,0.8,2.3,1.4c0.6,0.6,1.1,1.5,1.5,2.5l-5.9,0.6
		c-0.2-0.5-0.4-0.9-0.8-1.1c-0.5-0.3-1.1-0.5-1.8-0.5s-1.2,0.1-1.5,0.4c-0.3,0.2-0.5,0.6-0.5,0.9c0,0.4,0.2,0.7,0.6,0.9
		c0.4,0.2,1.3,0.4,2.7,0.5c2.1,0.2,3.6,0.6,4.6,1s1.8,1,2.3,1.8s0.8,1.6,0.8,2.5s-0.3,1.8-0.8,2.7c-0.6,0.9-1.5,1.6-2.7,2.1
		s-2.9,0.8-5,0.8c-3,0-5.1-0.4-6.3-1.3C216.9,55.3,216.1,54.1,215.8,52.5z"/>
	<path class="st2" d="M241.6,46.1l-5.9-0.6c0.2-1,0.5-1.9,1-2.4c0.4-0.6,1-1.1,1.8-1.5c0.6-0.3,1.4-0.6,2.3-0.7
		c1-0.2,2.1-0.3,3.2-0.3c1.9,0,3.4,0.1,4.5,0.3s2.1,0.6,2.8,1.3c0.5,0.5,0.9,1.1,1.2,1.9c0.3,0.8,0.5,1.6,0.5,2.4v7.2
		c0,0.8,0,1.4,0.1,1.8c0.1,0.4,0.3,1,0.6,1.7H248c-0.2-0.4-0.4-0.7-0.5-1c-0.1-0.2-0.1-0.6-0.2-1c-0.8,0.8-1.6,1.3-2.4,1.7
		c-1.1,0.4-2.4,0.7-3.8,0.7c-1.9,0-3.4-0.4-4.4-1.3c-1-0.9-1.5-2-1.5-3.3c0-1.2,0.4-2.2,1.1-3c0.7-0.8,2.1-1.4,4-1.8
		c2.3-0.5,3.8-0.8,4.5-1s1.4-0.4,2.2-0.7c0-0.8-0.2-1.3-0.5-1.6s-0.9-0.5-1.7-0.5c-1,0-1.8,0.2-2.3,0.5
		C242.1,44.9,241.8,45.4,241.6,46.1z M247,49.3c-0.9,0.3-1.7,0.6-2.7,0.8c-1.3,0.3-2.1,0.7-2.4,1c-0.3,0.3-0.5,0.7-0.5,1.1
		c0,0.5,0.2,0.9,0.5,1.2s0.8,0.5,1.5,0.5s1.3-0.2,1.9-0.5c0.6-0.3,1-0.7,1.3-1.2c0.2-0.5,0.4-1.1,0.4-1.9V49.3z"/>
	<path class="st2" d="M257,34.7h6.2V57H257V34.7z"/>
	<path class="st2" d="M284.2,57h-5.8v-2.6c-0.9,1.1-1.7,1.8-2.6,2.3s-2,0.7-3.2,0.7c-1.7,0-3-0.5-4-1.5s-1.5-2.6-1.5-4.7V40.8h6.2
		v8.9c0,1,0.2,1.7,0.6,2.2c0.4,0.4,0.9,0.6,1.6,0.6s1.3-0.3,1.8-0.9c0.5-0.6,0.7-1.6,0.7-3.1v-7.8h6.2L284.2,57L284.2,57z"/>
	<path class="st2" d="M305,34.7V57h-5.8v-2.4c-0.8,1-1.6,1.7-2.2,2.1c-0.9,0.5-1.9,0.7-3,0.7c-2.2,0-3.9-0.8-5.1-2.5
		s-1.7-3.7-1.7-6.1c0-2.7,0.6-4.7,1.9-6.2c1.3-1.4,2.9-2.1,4.9-2.1c1,0,1.8,0.2,2.6,0.5c0.8,0.3,1.5,0.8,2.1,1.5v-7.7L305,34.7
		L305,34.7z M298.8,48.9c0-1.3-0.3-2.2-0.8-2.8s-1.2-0.9-2-0.9c-0.7,0-1.3,0.3-1.8,0.9c-0.5,0.6-0.7,1.6-0.7,3
		c0,1.3,0.3,2.3,0.8,2.9c0.5,0.6,1.1,0.9,1.9,0.9s1.5-0.3,2-0.9C298.5,51.3,298.8,50.3,298.8,48.9z"/>
</g>
</svg>
