<?xml version="1.0" encoding="utf-8"?>
<!-- Generator: Adobe Illustrator 27.1.1, SVG Export Plug-In . SVG Version: 6.00 Build 0)  -->
<svg version="1.1" id="Capa_1" xmlns="http://www.w3.org/2000/svg" xmlns:xlink="http://www.w3.org/1999/xlink" x="0px" y="0px"
	 viewBox="0 0 384.1 101.1" style="enable-background:new 0 0 384.1 101.1;" xml:space="preserve">
<style type="text/css">
	.st0{fill:#003168;}
	.st1{fill:#EFEFEF;}
</style>
<path class="st0" d="M384.1,101.1H0V50C0,22.4,22.4,0,50,0h284.1c27.6,0,50,22.4,50,50V101.1z"/>
<g id="Page-1">
	<g id="logo-header" transform="translate(-1.000000, 0.000000)">
		<g id="Capa_2_00000170987695170139455470000008337368752567274394_" transform="translate(1.000000, 0.000000)">
			<g id="Group">
				<path id="Shape" class="st1" d="M78.1,74.7c-6.8-1-14.4-3.8-24.6-3.8c-2.3,0-5.4,0.2-8,0.7L45,70.4c3.1-1.8,8.1-5.4,8.1-13.1
					c0-3.1-1.2-6.4-2.5-9.8c-1.5-4.1-2.9-8-3.4-12c8.9-2.5,22.7-10.6,30.9-10.9c1.3,2.4,4,6.5,5,7.9l-1.1,1
					c-1.7-1.3-4.1-3.2-7.5-3.2c-1.4,0-2.3,0.1-3.2,0.5l-0.1,12.5c-0.1,8.7-2.7,12.2-14.7,18.6v0.2c7.8,0,16.8,2.6,20.1,2.6
					c3.2,0,5-0.7,7-4.3l1.4,0.8C83.1,64.7,80.1,70.7,78.1,74.7z M62.4,33.1c-1,0.4-3.2,1.3-3.8,1.7c-0.1,5.6-0.2,17.3-0.3,22.1
					l0.2,0.1c2.9-2.1,4-4.5,4-10.4L62.4,33.1z"/>
				<path id="Shape_00000048494955607555194530000003049107832326387642_" class="st1" d="M110.8,74.3l-6.7-5.4
					c-1.3,1.2-3.4,3.5-5.2,5.7c-3.2-1.9-7.4-4.1-11.5-6.3c0.7-1.3,1.3-3.7,1.4-6.2l0.1-9.3c0.1-2.1-0.2-4.3-0.7-5.4
					c3.2-2.2,9.8-8,11.2-9.6c5.3,1.6,8.5,2.5,13.8,3.5c-1,2.1-1.1,4.3-1.2,7l-0.3,16.1l5.4,3.4v0.1L110.8,74.3z M97,44.7h-0.2
					L97,64.6l6.2,2.6h0.2c0.2-2.2,0.4-14.3,0.6-20.8C102.3,46.2,99.2,45.5,97,44.7z"/>
				<polygon id="Path" class="st1" points="206.5,23.7 213.3,29 213.3,29.1 207,35.6 200.4,30.2 				"/>
				<path id="Shape_00000083086269505951373460000015349811755900856239_" class="st1" d="M170.1,36.8c-3.7,0-8-0.7-11.7-1.3
					l-0.1,13.1c0,2.9,0.4,5.1,1.5,6.4v0.2c-4,2.3-9.7,6.1-11.4,7.6c2.1,1.5,7.1,3.3,11.4,3.3c6.4,0,9.7-1.2,11.4-2.9l0.6,0.4
					l-3.4,10.1c-3.3,0.7-6.9,1.1-10.5,1.1c-14.2,0-25.4-8.7-25.4-20.9c0-8.4,7-13.9,17-19.4v-0.1c-0.7-0.1-8.2-0.8-10-0.8
					c-3,0-5.2,0.8-8.1,4.4l-0.9-0.5c2.8-4.5,4.7-7.6,7.4-12.1c11.7,0,21.2,2.4,26,2.4c6.7,0,8.6-0.9,9.8-1.9l0.4,0.1
					C173.7,27,170.1,36.8,170.1,36.8z M142.1,52.2c0,4.5,2.1,7.3,5,9.5c1.4-0.8,2.9-2.9,2.9-5.4l0.2-20.3
					C145.6,39.3,142.1,43.3,142.1,52.2z"/>
				<path id="Path_00000141455569903189641320000005440868341168011399_" class="st1" d="M191.2,54.8H191c-0.2-3.6-1.1-8-2.3-10.2
					l-2.6,2.3c0,1.5-0.2,4.3-0.2,7.5l-0.1,11.1c2.3,1,5.1,1.8,7.7,2.5v0.2l-6.2,6.6c-3.8-1.8-7.5-3.3-11.4-4.5
					c1-1.5,1.4-3.7,1.5-7.3l0.2-15.1c-2.1-1.6-4.5-3.6-5.2-4l6.3-6.2l7,6.7c2.1-1.6,8.8-6.7,8.8-6.7c2.1,2.9,3.4,6.7,3.9,11.5
					L191.2,54.8z"/>
				<path id="Path_00000010294389347935169650000014337374781924972722_" class="st1" d="M209.2,74.5c-2.4-2.2-6-5-7.8-6.2
					c1.9-1.8,2.5-4.2,2.6-6.8l0.2-14.7c-1.4-1.1-2.1-1.8-3.8-2.6c1.5-1.4,4.5-4.2,6.5-6.5c2.5,2,5.3,3.9,7.2,5.1
					c-1.1,1.6-1.4,3.9-1.4,6l-0.1,16.8c1.2,0.8,2.3,1.5,3.6,2.3V68C214.4,69.6,211,72.6,209.2,74.5z"/>
				<path id="Shape_00000073696813430360492160000007294617997835121027_" class="st1" d="M233.2,74.6c-4.4-2.4-8.8-4.7-13.9-5.4
					c1.3-1.8,1.5-4.8,1.5-9l-0.1-22.4c0-2.6-1-5.4-2.1-6.3c3.1-1.5,8.9-4.9,11.5-7.1l0.3,0.2c-1,2-1.5,5.1-1.5,9.4v8.4l6.6-4.5
					c2.1,1.5,6.7,4.2,9.8,5.6c-0.6,0.8-1,3.4-0.9,6l0.2,11.1c0.1,2.9,0.4,4.8,1.2,6C241.8,68.4,236.1,72,233.2,74.6z M236.1,47.2
					c-2.1-1.3-3.5-2.3-5.8-3.5l-1.3,0.7c-0.1,7-0.1,16.6-0.1,19.6c1.8,0.6,5.1,2.1,7.3,3.4h0.1C236.3,63,236.1,48.1,236.1,47.2z"/>
				<path id="Path_00000124141739372118746460000004771673028953568390_" class="st1" d="M273.3,74.4l-5.5-5.1l-4.3,5.1
					c-3.4-1.5-9.1-4.3-12.7-5.4c1.2-1.5,2-4.3,2-7.7l-0.1-14.8l-4-2.4l6.2-6.4c3.5,2.8,5.1,4,7.4,5.6c-0.5,0.8-1.1,2.9-1.1,4.9
					l-0.1,16.5l6.5,2.6l0.3-0.2c0.1-6.6,0.3-13.4,0.1-20c-0.7-0.6-1.8-1.5-3.1-2.3l6.4-7l6.5,5.6c-1,1.4-1.5,2.8-1.4,6.5l0.1,15.7
					c1.1,1,3.1,2.2,4,2.7v0.1L273.3,74.4z"/>
				<path id="Path_00000139288701574035343880000016074862117662908073_" class="st1" d="M305.3,74.3c-1.8-1.7-4.3-3.5-6.9-5.6
					c1.7-2.1,2.1-4.6,2.1-10.4l0.1-11.1c-1.3-0.6-5.2-1.8-7-1.8v20.7c0.7,0.4,2.1,1.6,3.2,2.1v0.1L290,74c-1.9-1.7-5.4-4.1-7.3-5.3
					c1.9-1.2,2.6-3.3,2.6-7.3V47.1c-1.6-1.2-3.2-2.2-4.5-2.9c2.5-2.4,4-3.8,6.2-6.5c1.4,1.4,4.6,4.1,6.5,5.4
					c1.8-1.2,4.2-3.7,5.6-5.1c2.7,1.5,8.6,4.1,11.2,5.2c-0.7,1-1.2,3.2-1.2,6.9v15.3c1.3,1,2.5,1.8,3.8,2.7v0.1
					C310.8,69.9,307.7,72.3,305.3,74.3z"/>
				<path id="Shape_00000180339409534227820860000002647400108137041046_" class="st1" d="M338.7,74.3l-6.7-5.4
					c-1.3,1.2-3.4,3.5-5.2,5.7c-3.2-1.9-7.4-4.1-11.5-6.3c0.7-1.3,1.3-3.7,1.4-6.2l0.1-9.3c0.1-2.1-0.2-4.3-0.7-5.4
					c3.2-2.2,9.8-8,11.2-9.6c5.3,1.6,8.5,2.5,13.8,3.5c-1,2.1-1.1,4.3-1.2,7l-0.3,16.1l5.4,3.4v0.1L338.7,74.3z M324.9,44.7h-0.2
					l0.2,19.9l6.2,2.6h0.2c0.2-2.2,0.4-14.3,0.6-20.8C330.2,46.2,327,45.5,324.9,44.7z"/>
			</g>
		</g>
	</g>
</g>
</svg>
